<?xml version="1.0" encoding="utf-8"?>
<!-- Generator: Adobe Illustrator 24.0.1, SVG Export Plug-In . SVG Version: 6.00 Build 0)  -->
<svg version="1.1" id="Layer_1" xmlns="http://www.w3.org/2000/svg" xmlns:xlink="http://www.w3.org/1999/xlink" x="0px" y="0px"
	 viewBox="0 0 648 864" style="enable-background:new 0 0 648 864;" xml:space="preserve">
<style type="text/css">
	.st0{clip-path:url(#SVGID_2_);}
	.st1{clip-path:url(#SVGID_4_);}
	.st2{clip-path:url(#SVGID_8_);}
	.st3{clip-path:url(#SVGID_12_);}
	.st4{clip-path:url(#SVGID_16_);}
	.st5{fill:#FFFFFF;}
	.st6{font-family:'Univers-Medium';}
	.st7{font-size:42px;}
	.st8{clip-path:url(#SVGID_20_);}
	.st9{clip-path:url(#SVGID_24_);}
	.st10{clip-path:url(#SVGID_28_);}
	.st11{clip-path:url(#SVGID_32_);}
	.st12{clip-path:url(#SVGID_36_);}
	.st13{clip-path:url(#SVGID_40_);}
	.st14{clip-path:url(#SVGID_44_);}
	.st15{clip-path:url(#SVGID_48_);}
	.st16{clip-path:url(#SVGID_52_);}
	.st17{clip-path:url(#SVGID_56_);}
	.st18{clip-path:url(#SVGID_60_);}
	.st19{clip-path:url(#SVGID_64_);}
	.st20{clip-path:url(#SVGID_68_);}
	.st21{clip-path:url(#SVGID_72_);}
	.st22{clip-path:url(#SVGID_76_);}
	.st23{clip-path:url(#SVGID_80_);}
	.st24{clip-path:url(#SVGID_84_);}
	.st25{clip-path:url(#SVGID_88_);}
	.st26{clip-path:url(#SVGID_92_);}
	.st27{clip-path:url(#SVGID_96_);}
	.st28{clip-path:url(#SVGID_100_);}
</style>
<g>
	<defs>
		<rect id="SVGID_1_" width="648" height="864"/>
	</defs>
	<clipPath id="SVGID_2_">
		<use xlink:href="#SVGID_1_"  style="overflow:visible;"/>
	</clipPath>
	<g class="st0">
		<defs>
			<rect id="SVGID_3_" x="224.64" y="215.28" width="231.84" height="155.8"/>
		</defs>
		<clipPath id="SVGID_4_">
			<use xlink:href="#SVGID_3_"  style="overflow:visible;"/>
		</clipPath>
		<g class="st1">
			<defs>
				<rect id="SVGID_5_" x="224.64" y="213.97" width="233.06" height="158.18"/>
			</defs>
			<clipPath id="SVGID_6_">
				<use xlink:href="#SVGID_5_"  style="overflow:visible;"/>
			</clipPath>
			<g transform="matrix(1 0 0 1 0 1.525879e-05)" style="clip-path:url(#SVGID_6_);">
				
					<image style="overflow:visible;" width="747" height="507" xlink:href="921255BFF92120B3.jpg"  transform="matrix(0.312 0 0 0.312 224.64 213.972)">
				</image>
			</g>
		</g>
	</g>
	<g class="st0">
		<defs>
			<polygon id="SVGID_7_" points="24.04,441.28 24.04,606.96 110.88,606.96 110.88,456.48 69.32,415.14 			"/>
		</defs>
		<clipPath id="SVGID_8_">
			<use xlink:href="#SVGID_7_"  style="overflow:visible;"/>
		</clipPath>
		<g class="st2">
			<defs>
				
					<rect id="SVGID_9_" x="-13.8" y="426.16" transform="matrix(0.866 -0.5 0.5 0.866 -250.0424 107.433)" width="178.5" height="188.28"/>
			</defs>
			<clipPath id="SVGID_10_">
				<use xlink:href="#SVGID_9_"  style="overflow:visible;"/>
			</clipPath>
			<g transform="matrix(1 -2.980232e-08 -2.980232e-08 1 -3.814697e-06 -3.051758e-05)" style="clip-path:url(#SVGID_10_);">
				
					<image style="overflow:visible;" width="949" height="1001" xlink:href="921255BFF92120B1.jpg"  transform="matrix(0.1629 -0.094 0.094 0.1629 -48.9121 483.3988)">
				</image>
			</g>
		</g>
	</g>
	<g class="st0">
		<defs>
			<polygon id="SVGID_11_" points="24.04,370.08 259.38,603.96 259.38,370.08 			"/>
		</defs>
		<clipPath id="SVGID_12_">
			<use xlink:href="#SVGID_11_"  style="overflow:visible;"/>
		</clipPath>
		<g class="st3">
			<defs>
				
					<rect id="SVGID_13_" x="109.78" y="263.53" transform="matrix(0.7071 -0.7071 0.7071 0.7071 -246.7406 266.0757)" width="176.06" height="334.71"/>
			</defs>
			<clipPath id="SVGID_14_">
				<use xlink:href="#SVGID_13_"  style="overflow:visible;"/>
			</clipPath>
			<g transform="matrix(1 0 0 1 -1.525879e-05 -1.525879e-05)" style="clip-path:url(#SVGID_14_);">
				
					<image style="overflow:visible;" width="1395" height="734" xlink:href="921255BFF92120B7.png"  transform="matrix(0.1697 0.1697 -0.1696 0.1696 141.7222 250.2962)">
				</image>
			</g>
		</g>
	</g>
	<g class="st0">
		<defs>
			<polygon id="SVGID_15_" points="259.38,453.16 423.79,453.16 423.79,446.65 259.38,370.08 			"/>
		</defs>
		<clipPath id="SVGID_16_">
			<use xlink:href="#SVGID_15_"  style="overflow:visible;"/>
		</clipPath>
		<g class="st4">
			<defs>
				<rect id="SVGID_17_" x="258.29" y="370.08" width="165.5" height="84.13"/>
			</defs>
			<clipPath id="SVGID_18_">
				<use xlink:href="#SVGID_17_"  style="overflow:visible;"/>
			</clipPath>
			<g transform="matrix(1 0 0 1 0 0)" style="clip-path:url(#SVGID_18_);">
				
					<image style="overflow:visible;" width="351" height="690" xlink:href="921255BFF92120B0.jpg"  transform="matrix(0 -0.2397 0.2399 0 258.2893 454.2101)">
				</image>
			</g>
		</g>
	</g>
	<polygon class="st0" points="24.04,604.96 24.04,822 148.32,822 148.32,739.04 	"/>
	<g class="st0">
		<text transform="matrix(-6.123234e-17 -1 1 -6.123234e-17 64.9566 810.3379)" class="st5 st6 st7">ZAPPIA</text>
	</g>
	<g class="st0">
		<defs>
			<polygon id="SVGID_19_" points="24.04,604.96 144.76,738.76 261.4,604.96 			"/>
		</defs>
		<clipPath id="SVGID_20_">
			<use xlink:href="#SVGID_19_"  style="overflow:visible;"/>
		</clipPath>
		<g class="st8">
			<defs>
				
					<rect id="SVGID_21_" x="30.57" y="493.25" transform="matrix(0.7071 -0.7071 0.7071 0.7071 -393.2271 287.6259)" width="240.03" height="250.47"/>
			</defs>
			<clipPath id="SVGID_22_">
				<use xlink:href="#SVGID_21_"  style="overflow:visible;"/>
			</clipPath>
			<g transform="matrix(1 0 0 1 3.051758e-05 0)" style="clip-path:url(#SVGID_22_);">
				
					<image style="overflow:visible;" width="874" height="912" xlink:href="921255BFF92120B3.png"  transform="matrix(0.1942 -0.1942 0.1942 0.1942 -22.8366 614.7903)">
				</image>
			</g>
		</g>
	</g>
	<g class="st0">
		<defs>
			<rect id="SVGID_23_" x="259.38" y="453.16" width="113.66" height="150.8"/>
		</defs>
		<clipPath id="SVGID_24_">
			<use xlink:href="#SVGID_23_"  style="overflow:visible;"/>
		</clipPath>
		<g class="st9">
			<defs>
				<rect id="SVGID_25_" x="258.21" y="452" width="114.83" height="151.96"/>
			</defs>
			<clipPath id="SVGID_26_">
				<use xlink:href="#SVGID_25_"  style="overflow:visible;"/>
			</clipPath>
			<g style="clip-path:url(#SVGID_26_);">
				
					<image style="overflow:visible;" width="365" height="483" xlink:href="921255BFF92120BF.jpg"  transform="matrix(0.3146 0 0 0.3146 258.2082 452.0038)">
				</image>
			</g>
		</g>
	</g>
	<g class="st0">
		<defs>
			<rect id="SVGID_27_" x="462.24" y="276.84" width="162.72" height="176.32"/>
		</defs>
		<clipPath id="SVGID_28_">
			<use xlink:href="#SVGID_27_"  style="overflow:visible;"/>
		</clipPath>
		<g class="st10">
			<defs>
				<rect id="SVGID_29_" x="461.09" y="275.72" width="165.02" height="178.78"/>
			</defs>
			<clipPath id="SVGID_30_">
				<use xlink:href="#SVGID_29_"  style="overflow:visible;"/>
			</clipPath>
			<g transform="matrix(1 0 0 1 0 0)" style="clip-path:url(#SVGID_30_);">
				
					<image style="overflow:visible;" width="420" height="455" xlink:href="921255BFF92120BF.png"  transform="matrix(0.3929 0 0 0.3929 461.0883 275.7247)">
				</image>
			</g>
		</g>
	</g>
	<g class="st0">
		<defs>
			<polygon id="SVGID_31_" points="426.24,453.16 259.38,371.08 458.1,371.08 624.96,453.16 			"/>
		</defs>
		<clipPath id="SVGID_32_">
			<use xlink:href="#SVGID_31_"  style="overflow:visible;"/>
		</clipPath>
		<g class="st11">
			<defs>
				<rect id="SVGID_33_" x="259.38" y="370.02" width="365.58" height="84.27"/>
			</defs>
			<clipPath id="SVGID_34_">
				<use xlink:href="#SVGID_33_"  style="overflow:visible;"/>
			</clipPath>
			<g style="clip-path:url(#SVGID_34_);">
				
					<image style="overflow:visible;" width="1963" height="451" xlink:href="921255BFF92120B2.jpg"  transform="matrix(0.1862 0 0 0.1868 259.38 370.0237)">
				</image>
			</g>
		</g>
	</g>
	<g class="st0">
		<defs>
			<polygon id="SVGID_35_" points="388.08,263.52 430.95,216.43 434.15,216.43 546.12,276.48 503.28,324 			"/>
		</defs>
		<clipPath id="SVGID_36_">
			<use xlink:href="#SVGID_35_"  style="overflow:visible;"/>
		</clipPath>
		<g class="st12">
			<defs>
				<rect id="SVGID_37_" x="386.83" y="216.44" width="160.54" height="107.56"/>
			</defs>
			<clipPath id="SVGID_38_">
				<use xlink:href="#SVGID_37_"  style="overflow:visible;"/>
			</clipPath>
			<g style="clip-path:url(#SVGID_38_);">
				
					<image style="overflow:visible;" width="566" height="378" xlink:href="921255BFF92120B6.jpg"  transform="matrix(0.2836 0 0 0.2846 386.8303 216.4354)">
				</image>
			</g>
		</g>
	</g>
	<g class="st0">
		<defs>
			<rect id="SVGID_39_" x="224.64" y="126" width="208.8" height="24.12"/>
		</defs>
		<clipPath id="SVGID_40_">
			<use xlink:href="#SVGID_39_"  style="overflow:visible;"/>
		</clipPath>
		<g class="st13">
			<defs>
				<rect id="SVGID_41_" x="224.52" y="124.86" width="209.03" height="26.3"/>
			</defs>
			<clipPath id="SVGID_42_">
				<use xlink:href="#SVGID_41_"  style="overflow:visible;"/>
			</clipPath>
			<g transform="matrix(1 0 0 1 0 -7.629395e-06)" style="clip-path:url(#SVGID_42_);">
				
					<image style="overflow:visible;" width="1200" height="151" xlink:href="1CA664BF01C9B9E0.png"  transform="matrix(0.1742 0 0 0.1742 224.5239 124.8619)">
				</image>
			</g>
		</g>
	</g>
	<g class="st0">
		<defs>
			<rect id="SVGID_43_" x="224.64" y="150.12" width="208.8" height="49.15"/>
		</defs>
		<clipPath id="SVGID_44_">
			<use xlink:href="#SVGID_43_"  style="overflow:visible;"/>
		</clipPath>
		<g class="st14">
			<defs>
				<rect id="SVGID_45_" x="224.64" y="148.99" width="208.8" height="50.29"/>
			</defs>
			<clipPath id="SVGID_46_">
				<use xlink:href="#SVGID_45_"  style="overflow:visible;"/>
			</clipPath>
			<g style="clip-path:url(#SVGID_46_);">
				
					<image style="overflow:visible;" width="1200" height="289" xlink:href="1CA664BF01C9B9E7.png"  transform="matrix(0.174 0 0 0.174 224.64 148.986)">
				</image>
			</g>
		</g>
	</g>
	<g class="st0">
		<defs>
			<rect id="SVGID_47_" x="224.64" y="198" width="208.8" height="17.91"/>
		</defs>
		<clipPath id="SVGID_48_">
			<use xlink:href="#SVGID_47_"  style="overflow:visible;"/>
		</clipPath>
		<g class="st15">
			<defs>
				<rect id="SVGID_49_" x="224.64" y="196.95" width="208.8" height="18.97"/>
			</defs>
			<clipPath id="SVGID_50_">
				<use xlink:href="#SVGID_49_"  style="overflow:visible;"/>
			</clipPath>
			<g style="clip-path:url(#SVGID_50_);">
				
					<image style="overflow:visible;" width="1200" height="109" xlink:href="1CA664BF01C9B9E1.png"  transform="matrix(0.174 0 0 0.174 224.64 196.946)">
				</image>
			</g>
		</g>
	</g>
	<g class="st0">
		<defs>
			<polygon id="SVGID_51_" points="433.44,126 433.44,215.28 546.12,276.84 624.96,276.84 624.96,126 			"/>
		</defs>
		<clipPath id="SVGID_52_">
			<use xlink:href="#SVGID_51_"  style="overflow:visible;"/>
		</clipPath>
		<g class="st16">
			<defs>
				<rect id="SVGID_53_" x="432.26" y="124.88" width="193.89" height="153.12"/>
			</defs>
			<clipPath id="SVGID_54_">
				<use xlink:href="#SVGID_53_"  style="overflow:visible;"/>
			</clipPath>
			<g style="clip-path:url(#SVGID_54_);">
				
					<image style="overflow:visible;" width="742" height="586" xlink:href="1CA664BF01C9B9E0.jpg"  transform="matrix(0.2613 0 0 0.2613 432.2562 124.8784)">
				</image>
			</g>
		</g>
	</g>
	<g class="st0">
		<defs>
			<polygon id="SVGID_55_" points="344.55,311 344.55,311.06 461.52,372.6 503.97,324.04 503.97,323.98 388.08,262.8 			"/>
		</defs>
		<clipPath id="SVGID_56_">
			<use xlink:href="#SVGID_55_"  style="overflow:visible;"/>
		</clipPath>
		<g class="st17">
			<defs>
				<rect id="SVGID_57_" x="344.55" y="261.5" width="159.41" height="112.4"/>
			</defs>
			<clipPath id="SVGID_58_">
				<use xlink:href="#SVGID_57_"  style="overflow:visible;"/>
			</clipPath>
			<g style="clip-path:url(#SVGID_58_);">
				
					<image style="overflow:visible;" width="512" height="361" xlink:href="1CA664BF01C9B9E1.jpg"  transform="matrix(0.3114 0 0 0.3114 344.5531 261.5004)">
				</image>
			</g>
		</g>
	</g>
	<g class="st0">
		<defs>
			<polygon id="SVGID_59_" points="110.88,606.96 262.8,606.96 110.88,456.48 			"/>
		</defs>
		<clipPath id="SVGID_60_">
			<use xlink:href="#SVGID_59_"  style="overflow:visible;"/>
		</clipPath>
		<g class="st18">
			<defs>
				<rect id="SVGID_61_" x="109.88" y="455.48" width="153.99" height="151.48"/>
			</defs>
			<clipPath id="SVGID_62_">
				<use xlink:href="#SVGID_61_"  style="overflow:visible;"/>
			</clipPath>
			<g transform="matrix(1 0 0 1 0 0)" style="clip-path:url(#SVGID_62_);">
				
					<image style="overflow:visible;" width="642" height="632" xlink:href="1CA664BF01C9B9FF.jpg"  transform="matrix(0.2399 0 0 0.2397 109.876 455.4756)">
				</image>
			</g>
		</g>
	</g>
	<g class="st0">
		<defs>
			<path id="SVGID_63_" d="M442.15,453.16c-1.02,0-41.6,0.1-76.39,15.56c-32.4,14.4-54.72,38.16-54.72,38.16l130.13,130.6l1-184.32
				C442.17,453.16,442.16,453.16,442.15,453.16"/>
		</defs>
		<clipPath id="SVGID_64_">
			<use xlink:href="#SVGID_63_"  style="overflow:visible;"/>
		</clipPath>
		<g class="st19">
			<defs>
				<rect id="SVGID_65_" x="310" y="452.12" width="133.22" height="186.64"/>
			</defs>
			<clipPath id="SVGID_66_">
				<use xlink:href="#SVGID_65_"  style="overflow:visible;"/>
			</clipPath>
			<g style="clip-path:url(#SVGID_66_);">
				
					<image style="overflow:visible;" width="404" height="566" xlink:href="1CA664BF01C9B9E2.jpg"  transform="matrix(0.3298 0 0 0.3298 309.9986 452.1154)">
				</image>
			</g>
		</g>
	</g>
	<g class="st0">
		<defs>
			<path id="SVGID_67_" d="M267.52,570.47c-12.73,33.09-11.71,65.68-11.71,65.68l184.36,0.33L310.54,505.44
				C310.54,505.44,281.36,534.48,267.52,570.47"/>
		</defs>
		<clipPath id="SVGID_68_">
			<use xlink:href="#SVGID_67_"  style="overflow:visible;"/>
		</clipPath>
		<g class="st20">
			<defs>
				<rect id="SVGID_69_" x="246.9" y="504.27" width="195.16" height="225.48"/>
			</defs>
			<clipPath id="SVGID_70_">
				<use xlink:href="#SVGID_69_"  style="overflow:visible;"/>
			</clipPath>
			<g style="clip-path:url(#SVGID_70_);">
				
					<image style="overflow:visible;" width="650" height="751" xlink:href="1CA664BF01C9B9E3.jpg"  transform="matrix(0.3002 0 0 0.3002 246.8965 504.2725)">
				</image>
			</g>
		</g>
	</g>
	<g class="st0">
		<defs>
			<path id="SVGID_71_" d="M271.94,711.71c14.4,32.4,38.16,54.72,38.16,54.72L440.7,636.3l-184.32-1
				C256.38,635.3,256.28,676.48,271.94,711.71"/>
		</defs>
		<clipPath id="SVGID_72_">
			<use xlink:href="#SVGID_71_"  style="overflow:visible;"/>
		</clipPath>
		<g class="st21">
			<defs>
				<rect id="SVGID_73_" x="255.18" y="634.13" width="186.56" height="133.45"/>
			</defs>
			<clipPath id="SVGID_74_">
				<use xlink:href="#SVGID_73_"  style="overflow:visible;"/>
			</clipPath>
			<g style="clip-path:url(#SVGID_74_);">
				
					<image style="overflow:visible;" width="541" height="387" xlink:href="1CA664BF01C9B9E6.jpg"  transform="matrix(0.3448 0 0 0.3448 255.1794 634.131)">
				</image>
			</g>
		</g>
	</g>
	<g class="st0">
		<defs>
			<path id="SVGID_75_" d="M309.52,766.24c0,0,29.04,29.18,65.03,43.03c33.09,12.73,65.68,11.71,65.68,11.71l0.33-184.36
				L309.52,766.24z"/>
		</defs>
		<clipPath id="SVGID_76_">
			<use xlink:href="#SVGID_75_"  style="overflow:visible;"/>
		</clipPath>
		<g class="st22">
			<defs>
				<rect id="SVGID_77_" x="308.46" y="634.68" width="217.43" height="192.56"/>
			</defs>
			<clipPath id="SVGID_78_">
				<use xlink:href="#SVGID_77_"  style="overflow:visible;"/>
			</clipPath>
			<g style="clip-path:url(#SVGID_78_);">
				
					<image style="overflow:visible;" width="673" height="596" xlink:href="1CA664BF01C9B9E7.jpg"  transform="matrix(0.3231 0 0 0.3231 308.4573 634.6846)">
				</image>
			</g>
		</g>
	</g>
	<g class="st0">
		<defs>
			<path id="SVGID_79_" d="M441.73,453.94L441.4,638.3l131.04-129.63c0,0-29.04-29.18-65.03-43.03
				c-28.53-10.97-56.68-11.73-63.9-11.73C442.35,453.92,441.73,453.94,441.73,453.94"/>
		</defs>
		<clipPath id="SVGID_80_">
			<use xlink:href="#SVGID_79_"  style="overflow:visible;"/>
		</clipPath>
		<g class="st23">
			<defs>
				
					<rect id="SVGID_81_" x="304.01" y="373.68" transform="matrix(0.7071 -0.7071 0.7071 0.7071 -238.8923 482.671)" width="318.36" height="312.06"/>
			</defs>
			<clipPath id="SVGID_82_">
				<use xlink:href="#SVGID_81_"  style="overflow:visible;"/>
			</clipPath>
			<g transform="matrix(1 -2.980232e-08 -2.980232e-08 1 -3.051758e-05 -3.051758e-05)" style="clip-path:url(#SVGID_82_);">
				
					<image style="overflow:visible;" width="1301" height="1327" xlink:href="1CA664BF01C9BA1B.png"  transform="matrix(0.1696 0.1696 -0.1696 0.1696 465.4189 306.8162)">
				</image>
			</g>
		</g>
	</g>
	<g class="st0">
		<defs>
			<path id="SVGID_83_" d="M441.64,638.48l184.32,1c0,0,0.1-41.17-15.56-76.41c-14.4-32.4-38.16-54.72-38.16-54.72L441.64,638.48z"
				/>
		</defs>
		<clipPath id="SVGID_84_">
			<use xlink:href="#SVGID_83_"  style="overflow:visible;"/>
		</clipPath>
		<g class="st24">
			<defs>
				<rect id="SVGID_85_" x="440.5" y="507.18" width="186.59" height="132.3"/>
			</defs>
			<clipPath id="SVGID_86_">
				<use xlink:href="#SVGID_85_"  style="overflow:visible;"/>
			</clipPath>
			<g transform="matrix(1 0 0 1 0 0)" style="clip-path:url(#SVGID_86_);">
				
					<image style="overflow:visible;" width="794" height="563" xlink:href="1CA664BF01C9BA05.jpg"  transform="matrix(0.235 0 0 0.235 440.4995 507.1764)">
				</image>
			</g>
		</g>
	</g>
	<g class="st0">
		<defs>
			<path id="SVGID_87_" d="M570.8,770.52c0,0,29.18-29.04,43.03-65.03c12.73-33.09,11.71-65.68,11.71-65.68l-184.36-0.33
				L570.8,770.52z"/>
		</defs>
		<clipPath id="SVGID_88_">
			<use xlink:href="#SVGID_87_"  style="overflow:visible;"/>
		</clipPath>
		<g class="st25">
			<defs>
				
					<rect id="SVGID_89_" x="480.75" y="568.11" transform="matrix(0.7071 -0.7071 0.7071 0.7071 -306.7728 583.3098)" width="139.96" height="187.71"/>
			</defs>
			<clipPath id="SVGID_90_">
				<use xlink:href="#SVGID_89_"  style="overflow:visible;"/>
			</clipPath>
			<g style="clip-path:url(#SVGID_90_);">
				
					<image style="overflow:visible;" width="783" height="584" xlink:href="1CA664BF01C9BA07.jpg"  transform="matrix(0.1695 0.1695 -0.1695 0.1695 533.8489 546.1117)">
				</image>
			</g>
		</g>
	</g>
	<g class="st0">
		<defs>
			<path id="SVGID_91_" d="M439.17,820.8c0,0,41.17,0.1,76.41-15.56c32.4-14.4,54.72-38.16,54.72-38.16l-130.13-130.6L439.17,820.8z
				"/>
		</defs>
		<clipPath id="SVGID_92_">
			<use xlink:href="#SVGID_91_"  style="overflow:visible;"/>
		</clipPath>
		<g class="st26">
			<defs>
				<rect id="SVGID_93_" x="438.11" y="635.38" width="133.42" height="186.63"/>
			</defs>
			<clipPath id="SVGID_94_">
				<use xlink:href="#SVGID_93_"  style="overflow:visible;"/>
			</clipPath>
			<g style="clip-path:url(#SVGID_94_);">
				
					<image style="overflow:visible;" width="477" height="341" xlink:href="1CA664BF01C9BA0A.jpg"  transform="matrix(0 0.3913 -0.3913 0 571.5358 635.3835)">
				</image>
			</g>
		</g>
	</g>
	<g class="st0">
		<defs>
			<path id="SVGID_95_" d="M141.84,733.74L140.83,822h274.32c0,0-78.55-13.44-127.15-81.84c-33.05-46.51-28.52-136.2-28.52-136.2
				L141.84,733.74z"/>
		</defs>
		<clipPath id="SVGID_96_">
			<use xlink:href="#SVGID_95_"  style="overflow:visible;"/>
		</clipPath>
		<g class="st27">
			<defs>
				<rect id="SVGID_97_" x="139.73" y="602.83" width="276" height="219.17"/>
			</defs>
			<clipPath id="SVGID_98_">
				<use xlink:href="#SVGID_97_"  style="overflow:visible;"/>
			</clipPath>
			<g style="clip-path:url(#SVGID_98_);">
				
					<image style="overflow:visible;" width="510" height="405" xlink:href="1CA664BF01C9BA0B.jpg"  transform="matrix(0.5412 0 0 0.5412 139.7298 602.8271)">
				</image>
			</g>
		</g>
	</g>
	<g class="st0">
		<defs>
			<rect id="SVGID_99_" x="24.04" y="55.44" width="203.52" height="315.64"/>
		</defs>
		<clipPath id="SVGID_100_">
			<use xlink:href="#SVGID_99_"  style="overflow:visible;"/>
		</clipPath>
		<g class="st28">
			<defs>
				<rect id="SVGID_101_" x="22.8" y="55.44" width="204.77" height="316.85"/>
			</defs>
			<clipPath id="SVGID_102_">
				<use xlink:href="#SVGID_101_"  style="overflow:visible;"/>
			</clipPath>
			<g transform="matrix(1 0 0 1 -1.907349e-06 0)" style="clip-path:url(#SVGID_102_);">
				
					<image style="overflow:visible;" width="665" height="1029" xlink:href="1CA664BF01C9BA0D.png"  transform="matrix(0.3079 0 0 0.3079 22.7963 55.44)">
				</image>
			</g>
		</g>
	</g>
</g>
</svg>
